<?xml version="1.0" encoding="UTF-8"?>
<svg xmlns="http://www.w3.org/2000/svg" xmlns:xlink="http://www.w3.org/1999/xlink" viewBox="0 0 3260.43 2588.94">
  <defs>
    <style>
      .cls-1 {
        fill: #fff;
      }

      .cls-2, .cls-3 {
        fill: #c0dec9;
      }

      .cls-4 {
        fill: #bdcae6;
      }

      .cls-5 {
        fill: #4a5e6c;
      }

      .cls-6 {
        fill: #3b4d54;
      }

      .cls-7 {
        fill: #576b77;
      }

      .cls-8 {
        fill: #3869af;
        mix-blend-mode: multiply;
        opacity: .25;
      }

      .cls-9 {
        fill: url(#linear-gradient);
        stroke: url(#New_Gradient_Swatch_4);
        stroke-miterlimit: 10;
      }

      .cls-10 {
        isolation: isolate;
      }

      .cls-3 {
        opacity: .26;
      }
    </style>
    <linearGradient id="linear-gradient" x1="1592.71" y1="2588.44" x2="1592.71" y2="1550.56" gradientUnits="userSpaceOnUse">
      <stop offset="0" stop-color="#ebe9dd"/>
      <stop offset=".09" stop-color="#e3e3d5"/>
      <stop offset=".22" stop-color="#cfd5c0"/>
      <stop offset=".39" stop-color="#afbe9e"/>
      <stop offset=".46" stop-color="#a0b48e"/>
      <stop offset=".47" stop-color="#9bb18b"/>
      <stop offset=".67" stop-color="#4a815c"/>
      <stop offset=".82" stop-color="#18633f"/>
      <stop offset=".89" stop-color="#055834"/>
    </linearGradient>
    <linearGradient id="New_Gradient_Swatch_4" data-name="New Gradient Swatch 4" x1="623.73" y1="2069.5" x2="2561.69" y2="2069.5" gradientUnits="userSpaceOnUse">
      <stop offset="0" stop-color="#ebe9dd"/>
      <stop offset=".34" stop-color="#c4c3aa"/>
      <stop offset=".67" stop-color="#a0b48e"/>
      <stop offset="1" stop-color="#055834"/>
    </linearGradient>
  </defs>
  <g class="cls-10">
    <g id="Layer_2" data-name="Layer 2">
      <g id="Layer_1-2" data-name="Layer 1">
        <g>
          <circle class="cls-3" cx="1592.76" cy="1225.46" r="1225.46"/>
          <path class="cls-2" d="M2160.44,942.63c-79.39,0-158.17-7.42-234.74-22.13-47.04-9.04-96.44-21.27-139.01-49.32-47.35-31.2-76.69-78.31-78.49-126.01-1.98-52.55,30.53-106.71,82.82-137.97,40.19-24.02,91.55-36.23,157-37.31,5.66-.11,10.39,4.45,10.48,10.14,.09,5.69-4.45,10.39-10.14,10.48-61.74,1.02-109.75,12.27-146.75,34.39-45.93,27.45-74.5,74.35-72.79,119.49,1.55,41.06,27.43,82.02,69.23,109.56,39.55,26.06,86.6,37.65,131.55,46.29,76.27,14.66,153.83,21.84,231.31,21.84,281.03,.01,561.81-94.36,783.08-268.68,4.47-3.52,10.96-2.75,14.48,1.72,3.52,4.47,2.75,10.96-1.72,14.48-70.81,55.78-148.75,104.28-231.65,144.14-81.71,39.29-168.17,70.17-256.99,91.78-88.81,21.61-179.8,33.91-270.43,36.56-12.42,.36-24.85,.54-37.25,.54Z"/>
          <path class="cls-2" d="M998.92,1309.24c-181.25,0-362.54-12.73-540.87-38.04-5.64-.8-9.56-6.02-8.76-11.66,.8-5.64,6.02-9.56,11.66-8.76,179.64,25.5,359.75,38.24,539.5,38.24,287.26,0,573.66-32.51,856.27-97.42,103-23.65,220.39-55.06,310.09-128.76,76.95-63.22,142.78-181.87,105.47-292.97-19.83-59.02-65.66-107.23-132.54-139.39-5.13-2.47-7.29-8.63-4.82-13.76,2.47-5.13,8.63-7.29,13.76-4.82,72.01,34.63,121.51,86.99,143.15,151.41,17.98,53.54,15.34,113.21-7.64,172.57-20.95,54.11-57.98,104.86-104.29,142.9-93.16,76.54-213.29,108.75-318.57,132.93-228.36,52.45-463.51,84.1-698.91,94.08-54.44,2.31-108.97,3.46-163.5,3.46Z"/>
          <path class="cls-2" d="M285.58,1240.59c-.74,0-1.49-.08-2.24-.25-108.03-23.95-198.9-55.64-277.8-96.87-5.05-2.64-7-8.87-4.36-13.92,2.64-5.05,8.87-7,13.92-4.36,77.27,40.38,166.47,71.46,272.71,95.01,5.56,1.23,9.07,6.74,7.84,12.3-1.07,4.81-5.33,8.08-10.06,8.08Z"/>
          <g>
            <path class="cls-9" d="M2561.08,1550.56l-43.43,217.54-142.64,714.45c-12.29,61.58-66.37,105.88-129.15,105.88H939.59c-62.82,0-116.85-44.3-129.15-105.88l-150.43-753.35-35.68-178.64h1936.75Z"/>
            <path class="cls-1" d="M1592.76,1855.89h0c23.72,0,42.98,19.26,42.98,42.98v439.22c0,23.72-19.26,42.98-42.98,42.98h0c-23.72,0-42.98-19.26-42.98-42.98v-439.22c0-23.72,19.26-42.98,42.98-42.98Z"/>
            <path class="cls-1" d="M1894.99,2377.24h0c-23.39-4.05-39.07-26.29-35.03-49.68l74.89-432.79c4.05-23.39,26.29-39.07,49.68-35.03h0c23.39,4.05,39.07,26.29,35.03,49.68l-74.89,432.79c-4.05,23.39-26.29,39.07-49.68,35.03Z"/>
            <path class="cls-1" d="M1290.53,2377.24h0c23.39-4.05,39.07-26.29,35.03-49.68l-74.89-432.79c-4.05-23.39-26.29-39.07-49.68-35.03h0c-23.39,4.05-39.07,26.29-35.03,49.68l74.89,432.79c4.05,23.39,26.29,39.07,49.68,35.03Z"/>
            <polygon class="cls-8" points="2561.08 1550.56 2517.65 1768.1 660.02 1729.2 624.34 1550.56 2561.08 1550.56"/>
            <rect class="cls-7" x="529.09" y="1444.28" width="2127.34" height="248.53" rx="124.26" ry="124.26"/>
            <rect class="cls-6" x="1435.07" y="976.4" width="315.3" height="794.04" rx="157.65" ry="157.65"/>
            <circle class="cls-1" cx="1592.76" cy="1572.46" r="73.59"/>
          </g>
          <g>
            <ellipse class="cls-5" cx="3139.42" cy="554.89" rx="127.57" ry="39.55" transform="translate(-5.42 1078.18) rotate(-19.47)"/>
            <ellipse class="cls-5" cx="3074.34" cy="497.6" rx="37" ry="81.01" transform="translate(200.04 1696.59) rotate(-31.84)"/>
            <ellipse class="cls-4" cx="3130.47" cy="477.01" rx="81.01" ry="37" transform="translate(2456.19 3570.99) rotate(-86.37)"/>
          </g>
        </g>
      </g>
    </g>
  </g>
</svg>